<svg xmlns="http://www.w3.org/2000/svg" direction="ltr" width="232" height="232" viewBox="-333 720 232 232" stroke-linecap="round" stroke-linejoin="round" data-color-mode="light" class="tl-container tl-theme__force-sRGB tl-theme__light" style="background-color: transparent;"><defs/><g transform="matrix(1, 0, 0, 1, -317, 736)" opacity="1"><path stroke-width="3.5" d="M -0.4615 99.863 C 0.1556 45.6684 44.9272 0.8968 100.1556 0.8968 C 156.0709 0.9144 200.8424 45.686 200.8424 100.9144 C 199.7853 154.4205 155.0138 199.192 99.7853 199.192 C 44.31 199.863 -0.4615 155.0915 -0.4615 99.863 M -1.1435 99.4917 C 0.036 45.4191 44.8076 0.6475 100.036 0.6475 C 154.2887 -1.0848 199.0603 43.6867 199.0603 98.9152 C 200.4008 155.6706 155.6292 200.4421 100.4008 200.4421 C 43.6281 199.4917 -1.1435 154.7202 -1.1435 99.4917" fill="none" stroke="#1d1d1d"/></g></svg>